<svg viewBox="0 0 263 43" xmlns="http://www.w3.org/2000/svg" data-logo="logo">
        <g transform="translate(0, 1) rotate(0)" id="logogram" style="opacity: 1;"><path fill="#FF9F1C" d="M68.75 0.809967H96.25L72.5 40.81H45L68.75 0.809967Z"></path><path fill="#FF9F1C" d="M43.75 0.809967H63.75L40 40.81H20L43.75 0.809967Z"></path><path fill="#FF9F1C" d="M23.75 0.809967H38.75L15 40.81H0L23.75 0.809967Z"></path></g>
        <g transform="translate(103, 1.5)" id="logotype" style="opacity: 1;"><path d="M16.50 39L8.40 39L8.40 7.80L16.38 7.80L16.38 12.36Q18.84 7.08 25.92 7.08L25.92 7.08Q29.22 7.08 31.86 8.61Q34.50 10.14 36.06 12.96L36.06 12.96Q37.62 10.14 40.05 8.61Q42.48 7.08 46.62 7.08L46.62 7.08Q49.98 7.08 52.68 8.64Q55.38 10.20 56.94 13.08Q58.50 15.96 58.50 19.92L58.50 19.92L58.50 39L50.40 39L50.40 21.90Q50.40 17.82 48.66 15.99Q46.92 14.16 44.16 14.16L44.16 14.16Q41.34 14.16 39.57 15.78Q37.80 17.40 37.80 21.90L37.80 21.90L37.80 39L29.70 39L29.70 21.90Q29.70 17.82 27.84 15.99Q25.98 14.16 22.98 14.16L22.98 14.16Q20.40 14.16 18.45 15.99Q16.50 17.82 16.50 21.90L16.50 21.90L16.50 39ZM78.42 39.78L78.42 39.78Q73.62 39.78 69.84 37.56Q66.06 35.34 63.93 31.65Q61.80 27.96 61.80 23.46L61.80 23.46Q61.80 18.96 63.93 15.24Q66.06 11.52 69.84 9.30Q73.62 7.08 78.42 7.08L78.42 7.08Q83.28 7.08 87.03 9.30Q90.78 11.52 92.91 15.24Q95.04 18.96 95.04 23.46L95.04 23.46Q95.04 27.96 92.91 31.65Q90.78 35.34 87.03 37.56Q83.28 39.78 78.42 39.78ZM78.42 32.40L78.42 32.40Q81 32.40 82.92 31.17Q84.84 29.94 85.89 27.90Q86.94 25.86 86.94 23.46L86.94 23.46Q86.94 21 85.89 18.96Q84.84 16.92 82.92 15.69Q81 14.46 78.42 14.46L78.42 14.46Q75.84 14.46 73.92 15.69Q72 16.92 70.95 18.96Q69.90 21 69.90 23.46L69.90 23.46Q69.90 25.86 70.95 27.90Q72 29.94 73.92 31.17Q75.84 32.40 78.42 32.40ZM113.22 39L108.78 39Q104.16 39 101.70 36.72Q99.24 34.44 99.24 29.34L99.24 29.34L99.24 14.70L94.86 14.70L94.86 7.80L99.24 7.80L99.24 1.50L107.34 0.66L107.34 7.80L113.94 7.80L113.94 14.70L107.34 14.70L107.34 28.92Q107.34 31.80 109.86 31.80L109.86 31.80L113.22 31.80L113.22 39ZM124.74 39L116.64 39L116.64 7.80L124.50 7.80L124.50 13.74Q125.28 10.38 127.68 8.61Q130.08 6.84 134.16 7.08L134.16 7.08L134.16 14.70L133.02 14.70Q129.54 14.70 127.14 16.92Q124.74 19.14 124.74 23.04L124.74 23.04L124.74 39ZM146.76 39.78L146.76 39.78Q138.90 39.78 133.80 34.32L133.80 34.32L139.26 29.34Q142.68 33.18 146.58 33.18L146.58 33.18Q148.68 33.18 149.79 32.25Q150.90 31.32 150.90 29.94L150.90 29.94Q150.90 29.10 150.51 28.50Q150.12 27.90 148.89 27.36Q147.66 26.82 145.20 26.28L145.20 26.28Q141 25.26 138.96 23.76Q136.92 22.26 136.26 20.40Q135.60 18.54 135.60 16.56L135.60 16.56Q135.60 12.48 138.69 9.75Q141.78 7.02 147.24 7.02L147.24 7.02Q151.02 7.02 153.72 8.16Q156.42 9.30 158.82 12.42L158.82 12.42L152.94 16.92Q151.80 15.12 150.39 14.34Q148.98 13.56 147.42 13.56L147.42 13.56Q145.74 13.56 144.63 14.22Q143.52 14.88 143.52 16.32L143.52 16.32Q143.52 17.10 144.24 17.85Q144.96 18.60 147.72 19.32L147.72 19.32Q152.28 20.46 154.68 21.99Q157.08 23.52 157.98 25.44Q158.88 27.36 158.88 29.70L158.88 29.70Q158.88 32.58 157.29 34.86Q155.70 37.14 152.97 38.46Q150.24 39.78 146.76 39.78Z" fill="#FF9F1C"></path></g>
        
      </svg>